<svg xmlns="http://www.w3.org/2000/svg" width="200" height="200" viewBox="0 0 200 200" role="img" aria-labelledby="title desc">
  <title id="title">RAG Builder Logo</title><desc id="desc">文档、数据节点和检索光束组成的抽象标志</desc>
  <defs><linearGradient id="g" x1="25" y1="20" x2="170" y2="180" gradientUnits="userSpaceOnUse"><stop stop-color="#60A5FA"/><stop offset=".5" stop-color="#22D3EE"/><stop offset="1" stop-color="#A78BFA"/></linearGradient><filter id="s" x="-30%" y="-30%" width="160%" height="160%"><feDropShadow dx="0" dy="8" stdDeviation="8" flood-color="#1E3A8A" flood-opacity=".24"/></filter></defs>
  <g filter="url(#s)">
    <path d="M53 30h66l28 28v92a16 16 0 0 1-16 16H53a16 16 0 0 1-16-16V46a16 16 0 0 1 16-16Z" fill="#101827" fill-opacity=".96" stroke="url(#g)" stroke-width="5"/>
    <path d="M118 31v28h28" fill="none" stroke="#60A5FA" stroke-width="5" stroke-linejoin="round"/>
    <path d="M62 78h54M62 98h38" stroke="#94A3B8" stroke-width="6" stroke-linecap="round"/>
    <circle cx="70" cy="131" r="10" fill="#60A5FA"/><circle cx="113" cy="121" r="10" fill="#22D3EE"/><circle cx="130" cy="145" r="10" fill="#A78BFA"/>
    <path d="m78 127 25-5m17 7 6 8m-48 1 42 5" stroke="url(#g)" stroke-width="5" stroke-linecap="round"/>
    <path d="M139 111 165 85" stroke="#22D3EE" stroke-width="6" stroke-linecap="round"/><circle cx="170" cy="80" r="8" fill="none" stroke="#22D3EE" stroke-width="5"/>
  </g>
</svg>
