<svg xmlns="http://www.w3.org/2000/svg" width="1200" height="470" viewBox="0 0 1200 470" role="img" aria-labelledby="title desc">
  <title id="title">RAG 问答与引用溯源流程</title><desc id="desc">从用户问题到回答、引用和来源返回的检索增强生成流程</desc>
  <defs><linearGradient id="bg"><stop stop-color="#09121F"/><stop offset="1" stop-color="#15132C"/></linearGradient><marker id="a" markerWidth="8" markerHeight="8" refX="7" refY="4" orient="auto"><path d="M0 0l8 4-8 4z" fill="#38BDF8"/></marker></defs>
  <rect width="1200" height="470" rx="28" fill="url(#bg)"/><text x="52" y="57" fill="#E2E8F0" font-family="sans-serif" font-size="26" font-weight="700">RAG 问答与引用溯源</text><text x="52" y="85" fill="#64748B" font-family="sans-serif" font-size="15">检索结果既提供回答上下文，也提供可追踪的来源字段</text>
  <g stroke="#38BDF8" stroke-width="3" marker-end="url(#a)"><path d="M175 188h45"/><path d="M320 188h45"/><path d="M465 188h45"/><path d="M610 188h45"/><path d="M755 188h45"/><path d="M900 188h45"/><path d="M1045 188h42"/></g>
  <g font-family="sans-serif" text-anchor="middle"><g fill="#111827" stroke="#334155"><rect x="45" y="138" width="130" height="100" rx="17"/><rect x="220" y="138" width="100" height="100" rx="17"/><rect x="365" y="138" width="100" height="100" rx="17"/><rect x="510" y="138" width="100" height="100" rx="17"/><rect x="655" y="138" width="100" height="100" rx="17"/><rect x="800" y="138" width="100" height="100" rx="17"/><rect x="945" y="138" width="100" height="100" rx="17"/><rect x="1087" y="125" width="80" height="126" rx="17"/></g>
  <g fill="#E2E8F0" font-size="15" font-weight="700"><text x="110" y="182">用户问题</text><text x="270" y="174">问题</text><text x="270" y="196">向量化</text><text x="415" y="174">混合</text><text x="415" y="196">检索</text><text x="560" y="174">阈值</text><text x="560" y="196">过滤</text><text x="705" y="174">可选</text><text x="705" y="196">Rerank</text><text x="850" y="174">组织</text><text x="850" y="196">上下文</text><text x="995" y="174">LLM</text><text x="995" y="196">生成回答</text><text x="1127" y="166">answer</text><text x="1127" y="193">citations</text><text x="1127" y="220">sources</text></g>
  <rect x="265" y="304" width="670" height="78" rx="20" fill="#10233D" stroke="#22D3EE"/><path d="M300 343h30l13-13 13 13h30" fill="none" stroke="#22D3EE" stroke-width="4" stroke-linecap="round"/><text x="620" y="337" fill="#CFFAFE" font-size="18" font-weight="700">引用来源来自检索结果，不由模型虚构</text><text x="620" y="361" fill="#67E8F9" font-size="13">doc_id · file_name · chunk_id · page_number · chunk_text · score</text></g>
</svg>
